<mxfile host="app.diagrams.net" agent="Mozilla/5.0 (Windows NT 10.0; Win64; x64) AppleWebKit/537.36 (KHTML, like Gecko) Chrome/140.0.0.0 Safari/537.36" version="28.2.4">
  <diagram name="Page-1" id="Pj13aEyQDoYXjgAknNS8">
    <mxGraphModel dx="1188" dy="648" grid="1" gridSize="10" guides="1" tooltips="1" connect="1" arrows="1" fold="1" page="1" pageScale="1" pageWidth="850" pageHeight="1100" math="0" shadow="0">
      <root>
        <mxCell id="0" />
        <mxCell id="1" parent="0" />
        <mxCell id="ZqUyQ_YigS3raIp8QX06-1" value="User" style="shape=umlActor;verticalLabelPosition=bottom;verticalAlign=top;html=1;" vertex="1" parent="1">
          <mxGeometry x="90" y="290" width="30" height="60" as="geometry" />
        </mxCell>
        <mxCell id="ZqUyQ_YigS3raIp8QX06-2" value="NTP Server" style="shape=umlActor;verticalLabelPosition=bottom;verticalAlign=top;html=1;" vertex="1" parent="1">
          <mxGeometry x="740" y="150" width="30" height="60" as="geometry" />
        </mxCell>
        <mxCell id="ZqUyQ_YigS3raIp8QX06-5" value="Get Date &amp;amp; Time" style="ellipse;whiteSpace=wrap;html=1;" vertex="1" parent="1">
          <mxGeometry x="570" y="130" width="95" height="70" as="geometry" />
        </mxCell>
        <mxCell id="ZqUyQ_YigS3raIp8QX06-7" value="" style="endArrow=classic;html=1;rounded=0;exitX=0;exitY=0.3333333333333333;exitDx=0;exitDy=0;exitPerimeter=0;entryX=1;entryY=0.5;entryDx=0;entryDy=0;" edge="1" parent="1" source="ZqUyQ_YigS3raIp8QX06-2" target="ZqUyQ_YigS3raIp8QX06-5">
          <mxGeometry width="50" height="50" relative="1" as="geometry">
            <mxPoint x="470" y="230" as="sourcePoint" />
            <mxPoint x="520" y="180" as="targetPoint" />
          </mxGeometry>
        </mxCell>
        <mxCell id="ZqUyQ_YigS3raIp8QX06-8" value="Choose Display&amp;nbsp;&lt;div&gt;Mode&lt;/div&gt;" style="ellipse;whiteSpace=wrap;html=1;" vertex="1" parent="1">
          <mxGeometry x="240" y="130" width="100" height="70" as="geometry" />
        </mxCell>
        <mxCell id="ZqUyQ_YigS3raIp8QX06-13" value="&amp;lt;&amp;lt;extend&amp;gt;&amp;gt;" style="html=1;verticalAlign=bottom;labelBackgroundColor=none;endArrow=open;endFill=0;dashed=1;rounded=0;entryX=1;entryY=0.5;entryDx=0;entryDy=0;exitX=0;exitY=0.5;exitDx=0;exitDy=0;" edge="1" parent="1" source="ZqUyQ_YigS3raIp8QX06-14" target="ZqUyQ_YigS3raIp8QX06-8">
          <mxGeometry width="160" relative="1" as="geometry">
            <mxPoint x="437.4999999999977" y="124.99999999999989" as="sourcePoint" />
            <mxPoint x="557.5" y="130" as="targetPoint" />
          </mxGeometry>
        </mxCell>
        <mxCell id="ZqUyQ_YigS3raIp8QX06-14" value="Display Hour and Minutes" style="ellipse;whiteSpace=wrap;html=1;" vertex="1" parent="1">
          <mxGeometry x="407.5" y="50" width="100" height="70" as="geometry" />
        </mxCell>
        <mxCell id="ZqUyQ_YigS3raIp8QX06-15" value="Display Day and Month" style="ellipse;whiteSpace=wrap;html=1;" vertex="1" parent="1">
          <mxGeometry x="407.5" y="130" width="100" height="70" as="geometry" />
        </mxCell>
        <mxCell id="ZqUyQ_YigS3raIp8QX06-16" value="&amp;lt;&amp;lt;extend&amp;gt;&amp;gt;" style="html=1;verticalAlign=bottom;labelBackgroundColor=none;endArrow=open;endFill=0;dashed=1;rounded=0;entryX=1;entryY=0.5;entryDx=0;entryDy=0;exitX=0;exitY=0.5;exitDx=0;exitDy=0;" edge="1" parent="1" source="ZqUyQ_YigS3raIp8QX06-15" target="ZqUyQ_YigS3raIp8QX06-8">
          <mxGeometry width="160" relative="1" as="geometry">
            <mxPoint x="492.5" y="190" as="sourcePoint" />
            <mxPoint x="397.5" y="230" as="targetPoint" />
          </mxGeometry>
        </mxCell>
        <mxCell id="ZqUyQ_YigS3raIp8QX06-17" value="Display Year" style="ellipse;whiteSpace=wrap;html=1;" vertex="1" parent="1">
          <mxGeometry x="407.5" y="210" width="100" height="70" as="geometry" />
        </mxCell>
        <mxCell id="ZqUyQ_YigS3raIp8QX06-18" value="&amp;lt;&amp;lt;extend&amp;gt;&amp;gt;" style="html=1;verticalAlign=bottom;labelBackgroundColor=none;endArrow=open;endFill=0;dashed=1;rounded=0;entryX=1;entryY=0.5;entryDx=0;entryDy=0;exitX=0;exitY=0.5;exitDx=0;exitDy=0;" edge="1" parent="1" source="ZqUyQ_YigS3raIp8QX06-17" target="ZqUyQ_YigS3raIp8QX06-8">
          <mxGeometry width="160" relative="1" as="geometry">
            <mxPoint x="422.5" y="220" as="sourcePoint" />
            <mxPoint x="357.5" y="220" as="targetPoint" />
          </mxGeometry>
        </mxCell>
        <mxCell id="ZqUyQ_YigS3raIp8QX06-19" value="&amp;lt;&amp;lt;extend&amp;gt;&amp;gt;" style="html=1;verticalAlign=bottom;labelBackgroundColor=none;endArrow=open;endFill=0;dashed=1;rounded=0;exitX=0;exitY=0.5;exitDx=0;exitDy=0;entryX=1;entryY=0.5;entryDx=0;entryDy=0;" edge="1" parent="1" source="ZqUyQ_YigS3raIp8QX06-20" target="ZqUyQ_YigS3raIp8QX06-8">
          <mxGeometry width="160" relative="1" as="geometry">
            <mxPoint x="327.5" y="320" as="sourcePoint" />
            <mxPoint x="347.5" y="170" as="targetPoint" />
          </mxGeometry>
        </mxCell>
        <mxCell id="ZqUyQ_YigS3raIp8QX06-20" value="Display Temperature and Humidity" style="ellipse;whiteSpace=wrap;html=1;" vertex="1" parent="1">
          <mxGeometry x="407.5" y="290" width="100" height="70" as="geometry" />
        </mxCell>
        <mxCell id="ZqUyQ_YigS3raIp8QX06-23" value="" style="endArrow=classic;html=1;rounded=0;exitX=1;exitY=0.3333333333333333;exitDx=0;exitDy=0;exitPerimeter=0;entryX=0;entryY=0.5;entryDx=0;entryDy=0;" edge="1" parent="1" source="ZqUyQ_YigS3raIp8QX06-1" target="ZqUyQ_YigS3raIp8QX06-8">
          <mxGeometry width="50" height="50" relative="1" as="geometry">
            <mxPoint x="150" y="290" as="sourcePoint" />
            <mxPoint x="200" y="240" as="targetPoint" />
          </mxGeometry>
        </mxCell>
        <mxCell id="ZqUyQ_YigS3raIp8QX06-25" value="&amp;lt;&amp;lt;include&amp;gt;&amp;gt;" style="html=1;verticalAlign=bottom;labelBackgroundColor=none;endArrow=open;endFill=0;dashed=1;rounded=0;exitX=1;exitY=0.5;exitDx=0;exitDy=0;entryX=0;entryY=0.5;entryDx=0;entryDy=0;" edge="1" parent="1" source="ZqUyQ_YigS3raIp8QX06-14" target="ZqUyQ_YigS3raIp8QX06-5">
          <mxGeometry width="160" relative="1" as="geometry">
            <mxPoint x="610" y="300" as="sourcePoint" />
            <mxPoint x="770" y="300" as="targetPoint" />
          </mxGeometry>
        </mxCell>
        <mxCell id="ZqUyQ_YigS3raIp8QX06-26" value="&amp;lt;&amp;lt;include&amp;gt;&amp;gt;" style="html=1;verticalAlign=bottom;labelBackgroundColor=none;endArrow=open;endFill=0;dashed=1;rounded=0;exitX=1;exitY=0.5;exitDx=0;exitDy=0;entryX=0;entryY=0.5;entryDx=0;entryDy=0;" edge="1" parent="1" source="ZqUyQ_YigS3raIp8QX06-15" target="ZqUyQ_YigS3raIp8QX06-5">
          <mxGeometry width="160" relative="1" as="geometry">
            <mxPoint x="580" y="260" as="sourcePoint" />
            <mxPoint x="642" y="330" as="targetPoint" />
          </mxGeometry>
        </mxCell>
        <mxCell id="ZqUyQ_YigS3raIp8QX06-27" value="&amp;lt;&amp;lt;include&amp;gt;&amp;gt;" style="html=1;verticalAlign=bottom;labelBackgroundColor=none;endArrow=open;endFill=0;dashed=1;rounded=0;exitX=1;exitY=0.5;exitDx=0;exitDy=0;entryX=0;entryY=0.5;entryDx=0;entryDy=0;" edge="1" parent="1" source="ZqUyQ_YigS3raIp8QX06-17" target="ZqUyQ_YigS3raIp8QX06-5">
          <mxGeometry width="160" relative="1" as="geometry">
            <mxPoint x="590" y="270" as="sourcePoint" />
            <mxPoint x="652" y="340" as="targetPoint" />
          </mxGeometry>
        </mxCell>
        <mxCell id="ZqUyQ_YigS3raIp8QX06-28" value="Set Alarm Clock" style="ellipse;whiteSpace=wrap;html=1;" vertex="1" parent="1">
          <mxGeometry x="240" y="420" width="100" height="70" as="geometry" />
        </mxCell>
        <mxCell id="ZqUyQ_YigS3raIp8QX06-29" value="Set hour" style="ellipse;whiteSpace=wrap;html=1;" vertex="1" parent="1">
          <mxGeometry x="410" y="380" width="100" height="70" as="geometry" />
        </mxCell>
        <mxCell id="ZqUyQ_YigS3raIp8QX06-30" value="Set Minutes" style="ellipse;whiteSpace=wrap;html=1;" vertex="1" parent="1">
          <mxGeometry x="410" y="470" width="100" height="70" as="geometry" />
        </mxCell>
        <mxCell id="ZqUyQ_YigS3raIp8QX06-31" value="&amp;lt;&amp;lt;include&amp;gt;&amp;gt;" style="html=1;verticalAlign=bottom;labelBackgroundColor=none;endArrow=open;endFill=0;dashed=1;rounded=0;exitX=1;exitY=0.5;exitDx=0;exitDy=0;entryX=0;entryY=0.5;entryDx=0;entryDy=0;" edge="1" parent="1" source="ZqUyQ_YigS3raIp8QX06-28" target="ZqUyQ_YigS3raIp8QX06-29">
          <mxGeometry width="160" relative="1" as="geometry">
            <mxPoint x="330" y="430" as="sourcePoint" />
            <mxPoint x="392" y="340" as="targetPoint" />
          </mxGeometry>
        </mxCell>
        <mxCell id="ZqUyQ_YigS3raIp8QX06-32" value="&amp;lt;&amp;lt;include&amp;gt;&amp;gt;" style="html=1;verticalAlign=bottom;labelBackgroundColor=none;endArrow=open;endFill=0;dashed=1;rounded=0;exitX=1;exitY=0.5;exitDx=0;exitDy=0;entryX=0;entryY=0.5;entryDx=0;entryDy=0;" edge="1" parent="1" source="ZqUyQ_YigS3raIp8QX06-28" target="ZqUyQ_YigS3raIp8QX06-30">
          <mxGeometry width="160" relative="1" as="geometry">
            <mxPoint x="360" y="530" as="sourcePoint" />
            <mxPoint x="430" y="490" as="targetPoint" />
          </mxGeometry>
        </mxCell>
        <mxCell id="ZqUyQ_YigS3raIp8QX06-33" value="" style="endArrow=classic;html=1;rounded=0;exitX=1;exitY=0.3333333333333333;exitDx=0;exitDy=0;exitPerimeter=0;entryX=0;entryY=0.5;entryDx=0;entryDy=0;" edge="1" parent="1" source="ZqUyQ_YigS3raIp8QX06-1" target="ZqUyQ_YigS3raIp8QX06-28">
          <mxGeometry width="50" height="50" relative="1" as="geometry">
            <mxPoint x="120" y="490" as="sourcePoint" />
            <mxPoint x="170" y="440" as="targetPoint" />
          </mxGeometry>
        </mxCell>
        <mxCell id="ZqUyQ_YigS3raIp8QX06-34" value="Set Count Timer" style="ellipse;whiteSpace=wrap;html=1;" vertex="1" parent="1">
          <mxGeometry x="240" y="530" width="100" height="70" as="geometry" />
        </mxCell>
        <mxCell id="ZqUyQ_YigS3raIp8QX06-35" value="" style="endArrow=classic;html=1;rounded=0;entryX=0;entryY=0.5;entryDx=0;entryDy=0;" edge="1" parent="1" target="ZqUyQ_YigS3raIp8QX06-34">
          <mxGeometry width="50" height="50" relative="1" as="geometry">
            <mxPoint x="120" y="310" as="sourcePoint" />
            <mxPoint x="170" y="430" as="targetPoint" />
          </mxGeometry>
        </mxCell>
      </root>
    </mxGraphModel>
  </diagram>
</mxfile>
